<?xml version="1.0"?>
<svg xmlns="http://www.w3.org/2000/svg" class="svg-defs" style="display:none;">
    <g id="check-circle-icon">
        <path fill-rule="evenodd" clip-rule="evenodd" d="M10 18C12.1217 18 14.1566 17.1571 15.6569 15.6569C17.1571 14.1566 18 12.1217 18 10C18 7.87827 17.1571 5.84344 15.6569 4.34315C14.1566 2.84285 12.1217 2 10 2C7.87827 2 5.84344 2.84285 4.34315 4.34315C2.84285 5.84344 2 7.87827 2 10C2 12.1217 2.84285 14.1566 4.34315 15.6569C5.84344 17.1571 7.87827 18 10 18ZM13.707 8.707C13.8892 8.5184 13.99 8.2658 13.9877 8.0036C13.9854 7.7414 13.8802 7.49059 13.6948 7.30518C13.5094 7.11977 13.2586 7.0146 12.9964 7.01233C12.7342 7.01005 12.4816 7.11084 12.293 7.293L9 10.586L7.707 9.293C7.5184 9.11084 7.2658 9.01005 7.0036 9.01233C6.7414 9.0146 6.49059 9.11977 6.30518 9.30518C6.11977 9.49059 6.0146 9.7414 6.01233 10.0036C6.01005 10.2658 6.11084 10.5184 6.293 10.707L8.293 12.707C8.48053 12.8945 8.73484 12.9998 9 12.9998C9.26516 12.9998 9.51947 12.8945 9.707 12.707L13.707 8.707Z" fill="#7E3AF2"/>
    </g>

    <g id="uptime-icon">
        <path fill-rule="evenodd" clip-rule="evenodd" d="M4.8 12C4.8 10.7269 5.30572 9.50601 6.20589 8.60584C7.10607 7.70566 8.32696 7.19995 9.6 7.19995H38.4C39.673 7.19995 40.8939 7.70566 41.7941 8.60584C42.6943 9.50601 43.2 10.7269 43.2 12V16.8C43.2 18.073 42.6943 19.2939 41.7941 20.1941C40.8939 21.0942 39.673 21.6 38.4 21.6H9.6C8.32696 21.6 7.10607 21.0942 6.20589 20.1941C5.30572 19.2939 4.8 18.073 4.8 16.8V12ZM38.4 14.4C38.4 15.0365 38.1471 15.6469 37.6971 16.097C37.247 16.5471 36.6365 16.8 36 16.8C35.3635 16.8 34.753 16.5471 34.3029 16.097C33.8529 15.6469 33.6 15.0365 33.6 14.4C33.6 13.7634 33.8529 13.153 34.3029 12.7029C34.753 12.2528 35.3635 12 36 12C36.6365 12 37.247 12.2528 37.6971 12.7029C38.1471 13.153 38.4 13.7634 38.4 14.4ZM4.8 31.1999C4.8 29.9269 5.30572 28.706 6.20589 27.8058C7.10607 26.9057 8.32696 26.4 9.6 26.4H38.4C39.673 26.4 40.8939 26.9057 41.7941 27.8058C42.6943 28.706 43.2 29.9269 43.2 31.1999V36C43.2 37.273 42.6943 38.4939 41.7941 39.3941C40.8939 40.2942 39.673 40.7999 38.4 40.7999H9.6C8.32696 40.7999 7.10607 40.2942 6.20589 39.3941C5.30572 38.4939 4.8 37.273 4.8 36V31.1999ZM38.4 33.5999C38.4 34.2365 38.1471 34.8469 37.6971 35.297C37.247 35.7471 36.6365 36 36 36C35.3635 36 34.753 35.7471 34.3029 35.297C33.8529 34.8469 33.6 34.2365 33.6 33.5999C33.6 32.9634 33.8529 32.353 34.3029 31.9029C34.753 31.4528 35.3635 31.1999 36 31.1999C36.6365 31.1999 37.247 31.4528 37.6971 31.9029C38.1471 32.353 38.4 32.9634 38.4 33.5999Z" fill="#7E3AF2"/>
    </g>

    <g id="users-icon">
        <path d="M21.6 14.4C21.6 16.3095 20.8414 18.1409 19.4912 19.4911C18.1409 20.8414 16.3096 21.6 14.4 21.6C12.4904 21.6 10.6591 20.8414 9.30883 19.4911C7.95856 18.1409 7.19999 16.3095 7.19999 14.4C7.19999 12.4904 7.95856 10.659 9.30883 9.30878C10.6591 7.95852 12.4904 7.19995 14.4 7.19995C16.3096 7.19995 18.1409 7.95852 19.4912 9.30878C20.8414 10.659 21.6 12.4904 21.6 14.4ZM40.8 14.4C40.8 15.3455 40.6138 16.2817 40.2519 17.1553C39.8901 18.0288 39.3597 18.8225 38.6912 19.4911C38.0226 20.1597 37.2289 20.6901 36.3553 21.0519C35.4818 21.4137 34.5455 21.6 33.6 21.6C32.6545 21.6 31.7182 21.4137 30.8447 21.0519C29.9711 20.6901 29.1774 20.1597 28.5088 19.4911C27.8402 18.8225 27.3099 18.0288 26.9481 17.1553C26.5862 16.2817 26.4 15.3455 26.4 14.4C26.4 12.4904 27.1586 10.659 28.5088 9.30878C29.8591 7.95852 31.6904 7.19995 33.6 7.19995C35.5096 7.19995 37.3409 7.95852 38.6912 9.30878C40.0414 10.659 40.8 12.4904 40.8 14.4ZM31.032 40.7999C31.1424 40.0151 31.2 39.216 31.2 38.4C31.2055 34.6292 29.937 30.9672 27.6 28.0079C29.4242 26.9547 31.4935 26.4003 33.5999 26.4003C35.7063 26.4002 37.7756 26.9547 39.5999 28.0079C41.4241 29.0611 42.9389 30.5759 43.9922 32.4001C45.0454 34.2242 45.5999 36.2935 45.6 38.4V40.7999H31.032ZM14.4 26.4C17.5826 26.4 20.6348 27.6642 22.8853 29.9147C25.1357 32.1651 26.4 35.2174 26.4 38.4V40.7999H2.39999V38.4C2.39999 35.2174 3.66428 32.1651 5.91471 29.9147C8.16515 27.6642 11.2174 26.4 14.4 26.4Z" fill="#7E3AF2"/>
    </g>

    <g id="shopping-cart-icon">
        <path d="M7.2 2.40002C6.56348 2.40002 5.95303 2.65288 5.50295 3.10297C5.05286 3.55306 4.8 4.1635 4.8 4.80002C4.8 5.43654 5.05286 6.04699 5.50295 6.49708C5.95303 6.94717 6.56348 7.20002 7.2 7.20002H10.128L10.86 10.1328C10.8673 10.1666 10.8753 10.2002 10.884 10.2336L14.1432 23.2656L12 25.4064C8.976 28.4304 11.1168 33.6 15.3936 33.6H36C36.6365 33.6 37.247 33.3472 37.6971 32.8971C38.1471 32.447 38.4 31.8365 38.4 31.2C38.4 30.5635 38.1471 29.9531 37.6971 29.503C37.247 29.0529 36.6365 28.8 36 28.8H15.3936L17.7936 26.4H33.6C34.0456 26.3998 34.4823 26.2755 34.8613 26.0411C35.2402 25.8067 35.5464 25.4714 35.7456 25.0728L42.9456 10.6728C43.1284 10.307 43.2147 9.90056 43.1963 9.49204C43.1779 9.08351 43.0554 8.68647 42.8405 8.33857C42.6255 7.99067 42.3253 7.70347 41.9682 7.50421C41.611 7.30495 41.2089 7.20024 40.8 7.20002H15.072L14.328 4.21682C14.198 3.69783 13.8983 3.23717 13.4765 2.908C13.0547 2.57883 12.535 2.40004 12 2.40002H7.2ZM38.4 39.6C38.4 40.5548 38.0207 41.4705 37.3456 42.1456C36.6705 42.8207 35.7548 43.2 34.8 43.2C33.8452 43.2 32.9296 42.8207 32.2544 42.1456C31.5793 41.4705 31.2 40.5548 31.2 39.6C31.2 38.6452 31.5793 37.7296 32.2544 37.0544C32.9296 36.3793 33.8452 36 34.8 36C35.7548 36 36.6705 36.3793 37.3456 37.0544C38.0207 37.7296 38.4 38.6452 38.4 39.6ZM15.6 43.2C16.5548 43.2 17.4705 42.8207 18.1456 42.1456C18.8207 41.4705 19.2 40.5548 19.2 39.6C19.2 38.6452 18.8207 37.7296 18.1456 37.0544C17.4705 36.3793 16.5548 36 15.6 36C14.6452 36 13.7295 36.3793 13.0544 37.0544C12.3793 37.7296 12 38.6452 12 39.6C12 40.5548 12.3793 41.4705 13.0544 42.1456C13.7295 42.8207 14.6452 43.2 15.6 43.2Z" fill="#7E3AF2"/>
    </g>

    <g id="globe-icon">
        <path fill-rule="evenodd" clip-rule="evenodd" d="M24 43.2001C29.0921 43.2001 33.9757 41.1772 37.5764 37.5765C41.1771 33.9758 43.2 29.0922 43.2 24C43.2 18.9079 41.1771 14.0243 37.5764 10.4236C33.9757 6.8229 29.0921 4.80005 24 4.80005C18.9078 4.80005 14.0242 6.8229 10.4235 10.4236C6.82284 14.0243 4.79999 18.9079 4.79999 24C4.79999 29.0922 6.82284 33.9758 10.4235 37.5765C14.0242 41.1772 18.9078 43.2001 24 43.2001ZM10.3968 19.2649C11.2879 16.713 12.8779 14.4627 14.9856 12.7704C15.6288 13.752 16.7376 14.4 18 14.4C18.9548 14.4 19.8704 14.7793 20.5456 15.4545C21.2207 16.1296 21.6 17.0453 21.6 18V19.2C21.6 20.4731 22.1057 21.694 23.0059 22.5942C23.9061 23.4943 25.1269 24 26.4 24C27.673 24 28.8939 23.4943 29.7941 22.5942C30.6943 21.694 31.2 20.4731 31.2 19.2C31.1996 18.1259 31.5595 17.0826 32.2222 16.2372C32.8849 15.3918 33.812 14.793 34.8552 14.5368C37.1455 17.1569 38.4054 20.5201 38.4 24C38.4 24.816 38.3328 25.6201 38.2008 26.4H36C34.7269 26.4 33.5061 26.9058 32.6059 27.8059C31.7057 28.7061 31.2 29.927 31.2 31.2001V36.4728C29.0119 37.7389 26.5279 38.4037 24 38.4001V33.6C24 32.327 23.4943 31.1061 22.5941 30.2059C21.6939 29.3058 20.473 28.8 19.2 28.8C17.9269 28.8 16.706 28.2943 15.8059 27.3942C14.9057 26.494 14.4 25.2731 14.4 24C14.4004 22.8648 13.9985 21.7662 13.2656 20.8993C12.5327 20.0324 11.5162 19.4533 10.3968 19.2649Z" fill="#7E3AF2"/>
    </g>

    <g id="quotes-icon">
        <path d="M28.034 36L28.034 21.218C28.034 9.81 35.496 2.078 46 0L47.99 4.302C43.126 6.136 40 11.578 40 16H48V36H28.034ZM0 36V21.218C0 9.81 7.496 2.076 18 0L19.992 4.302C15.126 6.136 12 11.578 12 16H19.966L19.966 36L0 36Z" fill="#9CA3AF"/>
    </g>

    <g id="github-icon">
        <path d="M8.80078 17.2109C8.80078 17.1406 8.73047 17.0703 8.625 17.0703C8.51953 17.0703 8.44922 17.1406 8.44922 17.2109C8.44922 17.2812 8.51953 17.3516 8.625 17.3164C8.73047 17.3164 8.80078 17.2812 8.80078 17.2109ZM7.71094 17.0352C7.71094 17.1055 7.78125 17.2109 7.88672 17.2109C7.95703 17.2461 8.0625 17.2109 8.09766 17.1406C8.09766 17.0703 8.0625 17 7.95703 16.9648C7.85156 16.9297 7.74609 16.9648 7.71094 17.0352ZM9.29297 17C9.1875 17 9.11719 17.0703 9.11719 17.1758C9.11719 17.2461 9.22266 17.2812 9.32812 17.2461C9.43359 17.2109 9.50391 17.1758 9.46875 17.1055C9.46875 17.0352 9.36328 16.9648 9.29297 17ZM11.5781 3.5C6.72656 3.5 3 7.22656 3 12.0781C3 15.9805 5.42578 19.3203 8.94141 20.5156C9.39844 20.5859 9.53906 20.3047 9.53906 20.0938C9.53906 19.8477 9.53906 18.6523 9.53906 17.9141C9.53906 17.9141 7.07812 18.4414 6.55078 16.8594C6.55078 16.8594 6.16406 15.8398 5.60156 15.5938C5.60156 15.5938 4.79297 15.0312 5.63672 15.0312C5.63672 15.0312 6.51562 15.1016 7.00781 15.9453C7.78125 17.3164 9.04688 16.9297 9.57422 16.6836C9.64453 16.1211 9.85547 15.7344 10.1367 15.4883C8.16797 15.2773 6.16406 14.9961 6.16406 11.6211C6.16406 10.6367 6.44531 10.1797 7.00781 9.54688C6.90234 9.30078 6.62109 8.38672 7.11328 7.15625C7.81641 6.94531 9.53906 8.10547 9.53906 8.10547C10.2422 7.89453 10.9805 7.82422 11.7188 7.82422C12.4922 7.82422 13.2305 7.89453 13.9336 8.10547C13.9336 8.10547 15.6211 6.91016 16.3594 7.15625C16.8516 8.38672 16.5352 9.30078 16.4648 9.54688C17.0273 10.1797 17.3789 10.6367 17.3789 11.6211C17.3789 14.9961 15.3047 15.2773 13.3359 15.4883C13.6523 15.7695 13.9336 16.2969 13.9336 17.1406C13.9336 18.3008 13.8984 19.7773 13.8984 20.0586C13.8984 20.3047 14.0742 20.5859 14.5312 20.4805C18.0469 19.3203 20.4375 15.9805 20.4375 12.0781C20.4375 7.22656 16.4648 3.5 11.5781 3.5ZM6.41016 15.6289C6.33984 15.6641 6.375 15.7695 6.41016 15.8398C6.48047 15.875 6.55078 15.9102 6.62109 15.875C6.65625 15.8398 6.65625 15.7344 6.58594 15.6641C6.51562 15.6289 6.44531 15.5938 6.41016 15.6289ZM6.02344 15.3477C5.98828 15.418 6.02344 15.4531 6.09375 15.4883C6.16406 15.5234 6.23438 15.5234 6.26953 15.4531C6.26953 15.418 6.23438 15.3828 6.16406 15.3477C6.09375 15.3125 6.05859 15.3125 6.02344 15.3477ZM7.14844 16.6133C7.11328 16.6484 7.11328 16.7539 7.21875 16.8242C7.28906 16.8945 7.39453 16.9297 7.42969 16.8594C7.46484 16.8242 7.46484 16.7188 7.39453 16.6484C7.32422 16.5781 7.21875 16.543 7.14844 16.6133ZM6.76172 16.0859C6.69141 16.1211 6.69141 16.2266 6.76172 16.2969C6.83203 16.3672 6.90234 16.4023 6.97266 16.3672C7.00781 16.332 7.00781 16.2266 6.97266 16.1562C6.90234 16.0859 6.83203 16.0508 6.76172 16.0859Z" fill="#9CA3AF"/>
    </g>

    <g id="twitter-icon">
        <path d="M19.1367 9.12109C19.8398 8.59375 20.4727 7.96094 20.9648 7.22266C20.332 7.50391 19.5938 7.71484 18.8555 7.78516C19.6289 7.32812 20.1914 6.625 20.4727 5.74609C19.7695 6.16797 18.9609 6.48438 18.1523 6.66016C17.4492 5.92188 16.5 5.5 15.4453 5.5C13.4062 5.5 11.7539 7.15234 11.7539 9.19141C11.7539 9.47266 11.7891 9.75391 11.8594 10.0352C8.80078 9.85938 6.05859 8.38281 4.23047 6.16797C3.91406 6.69531 3.73828 7.32812 3.73828 8.03125C3.73828 9.29688 4.37109 10.4219 5.39062 11.0898C4.79297 11.0547 4.19531 10.9141 3.70312 10.6328V10.668C3.70312 12.4609 4.96875 13.9375 6.65625 14.2891C6.375 14.3594 6.02344 14.4297 5.70703 14.4297C5.46094 14.4297 5.25 14.3945 5.00391 14.3594C5.46094 15.8359 6.83203 16.8906 8.44922 16.9258C7.18359 17.9102 5.60156 18.5078 3.87891 18.5078C3.5625 18.5078 3.28125 18.4727 3 18.4375C4.61719 19.4922 6.55078 20.0898 8.66016 20.0898C15.4453 20.0898 19.1367 14.5 19.1367 9.61328C19.1367 9.4375 19.1367 9.29688 19.1367 9.12109Z" fill="#9CA3AF"/>
    </g>

    <g id="dribble-icon">
        <path d="M11.7188 3.5C6.90234 3.5 3 7.4375 3 12.2188C3 17.0352 6.90234 20.9375 11.7188 20.9375C16.5 20.9375 20.4375 17.0352 20.4375 12.2188C20.4375 7.4375 16.5 3.5 11.7188 3.5ZM17.4492 7.54297C18.5039 8.80859 19.1367 10.4258 19.1367 12.1836C18.8906 12.1133 16.4297 11.6211 13.9688 11.9375C13.7578 11.4453 13.582 11.0234 13.3008 10.4609C16.0781 9.33594 17.3086 7.75391 17.4492 7.54297ZM16.6406 6.66406C16.5 6.875 15.375 8.38672 12.7383 9.37109C11.5078 7.12109 10.1719 5.29297 9.96094 5.01172C12.3164 4.44922 14.8125 5.04688 16.6406 6.66406ZM8.51953 5.50391C8.73047 5.78516 10.0664 7.61328 11.2969 9.82812C7.81641 10.7422 4.75781 10.7422 4.40625 10.707C4.89844 8.42188 6.44531 6.48828 8.51953 5.50391ZM4.26562 12.2539C4.26562 12.1836 4.26562 12.1133 4.26562 12.0078C4.58203 12.043 8.20312 12.0781 11.8945 10.9531C12.1406 11.375 12.3164 11.7969 12.5273 12.2188C9.82031 12.9922 7.35938 15.1719 6.16406 17.2109C4.96875 15.9102 4.26562 14.1523 4.26562 12.2539ZM7.11328 18.125C7.92188 16.543 10.0312 14.4688 13.0195 13.4492C14.0742 16.1562 14.4961 18.4414 14.6016 19.1094C12.2109 20.1289 9.32812 19.8477 7.11328 18.125ZM15.8672 18.4062C15.7969 17.9844 15.375 15.8047 14.4258 13.0977C16.7461 12.7461 18.7852 13.3438 19.0664 13.4141C18.7148 15.4883 17.5195 17.2812 15.8672 18.4062Z" fill="#9CA3AF"/>
    </g>

    <g id="facebook-icon">
        <path d="M16.0352 13.625L16.5273 10.3906H13.3984V8.28125C13.3984 7.36719 13.8203 6.52344 15.2266 6.52344H16.668V3.74609C16.668 3.74609 15.3672 3.5 14.1367 3.5C11.5703 3.5 9.88281 5.08203 9.88281 7.89453V10.3906H7V13.625H9.88281V21.5H13.3984V13.625H16.0352Z" fill="#9CA3AF"/>
    </g>

    <g id="close-icon">
        <path stroke-linecap="round" stroke-linejoin="round" d="M6 18L18 6M6 6l12 12" />
    </g>
</svg>
