<?xml version="1.0" encoding="UTF-8" standalone="no"?>
<svg
   width="167"
   height="36"
   viewBox="0 0 167 36"
   fill="none"
   version="1.1"
   id="svg327"
   sodipodi:docname="saaspro-logo-dark.svg"
   inkscape:version="1.2.2 (732a01da63, 2022-12-09)"
   xml:space="preserve"
   xmlns:inkscape="http://www.inkscape.org/namespaces/inkscape"
   xmlns:sodipodi="http://sodipodi.sourceforge.net/DTD/sodipodi-0.dtd"
   xmlns="http://www.w3.org/2000/svg"
   xmlns:svg="http://www.w3.org/2000/svg"><sodipodi:namedview
     id="namedview329"
     pagecolor="#ffffff"
     bordercolor="#000000"
     borderopacity="0.25"
     inkscape:showpageshadow="2"
     inkscape:pageopacity="0.0"
     inkscape:pagecheckerboard="0"
     inkscape:deskcolor="#d1d1d1"
     showgrid="false"
     inkscape:zoom="4.469228"
     inkscape:cx="44.750458"
     inkscape:cy="19.354573"
     inkscape:window-width="1366"
     inkscape:window-height="706"
     inkscape:window-x="-8"
     inkscape:window-y="-8"
     inkscape:window-maximized="1"
     inkscape:current-layer="svg327" /><path
     d="M 18,36 C 8.05887,36 -1.22135e-6,27.9411 -7.86805e-7,18 -3.52265e-7,8.05887 8.05887,-1.22135e-6 18,-7.86805e-7 27.9411,-3.52265e-7 36,8.05887 36,18 36,27.9411 27.9411,36 18,36 Z M 18,8.59219 c -5.1958,0 -9.40781,4.21201 -9.40781,9.40781 0,5.1958 4.21201,9.4078 9.40781,9.4078 5.1958,0 9.4078,-4.212 9.4078,-9.4078 0,-5.1958 -4.212,-9.40781 -9.4078,-9.40781 z"
     fill="url(#paint0_linear_211_45)"
     id="path283"
     style="opacity:0.82;fill:#5f8dd3" /><path
     d="M 18,2.14648e-7 C 20.8626,2.48784e-7 23.6839,0.68274 26.2298,1.99155 c 2.5459,1.30882 4.7429,3.20596 6.4087,5.53397 1.6658,2.32801 2.7523,5.01978 3.1694,7.85178 0.4171,2.8321 0.1527,5.7228 -0.7712,8.4322 -0.9239,2.7094 -2.4807,5.1594 -4.5411,7.1466 -2.0605,1.9872 -4.5651,3.4543 -7.3062,4.2796 C 20.4483,36.061 17.55,36.2206 14.7349,35.7014 11.9198,35.1821 9.26908,33.9989 7.00286,32.25 l 5.25524,-6.8097 c 1.1833,0.9132 2.5672,1.5309 4.0371,1.802 1.4698,0.2712 2.9831,0.1878 4.4143,-0.2431 1.4312,-0.4309 2.739,-1.1969 3.8148,-2.2345 1.0758,-1.0376 1.8886,-2.3168 2.371,-3.7314 0.4824,-1.4147 0.6204,-2.924 0.4027,-4.4027 C 27.0802,15.1519 26.5129,13.7465 25.6431,12.531 24.7734,11.3155 23.6263,10.3249 22.297,9.64158 20.9677,8.95821 19.4946,8.60174 18,8.60174 Z"
     fill="url(#paint1_linear_211_45)"
     id="path285"
     style="fill:#3771c8" /><defs
     id="defs325" /><text
     xml:space="preserve"
     style="font-style:normal;font-variant:normal;font-weight:bold;font-stretch:normal;font-size:10.6667px;font-family:Sans;-inkscape-font-specification:'Sans, Bold';font-variant-ligatures:normal;font-variant-caps:normal;font-variant-numeric:normal;font-variant-east-asian:normal;text-align:center;text-anchor:middle;fill:#ffffff"
     x="100.91228"
     y="21.837696"
     id="text549"><tspan
       sodipodi:role="line"
       id="tspan547"
       x="100.91228"
       y="21.837696">SaaS Boilerplate Pro</tspan></text><g
     style="fill:#5f8ed3;fill-opacity:0.819608"
     id="g6612"
     transform="translate(10.123967,9.6764308)"><path
       d="M 11,13 A 5,5 0 1 0 6.025,7.5 H 4 A 1.5,1.5 0 0 0 2.5,6 h -1 A 1.5,1.5 0 0 0 0,7.5 v 1 A 1.5,1.5 0 0 0 1.5,10 h 1 A 1.5,1.5 0 0 0 4,8.5 H 6.025 A 5,5 0 0 0 11,13 Z m 0.5,-7.5 v 2 h 2 a 0.5,0.5 0 0 1 0,1 h -2 v 2 a 0.5,0.5 0 0 1 -1,0 v -2 h -2 a 0.5,0.5 0 0 1 0,-1 h 2 v -2 a 0.5,0.5 0 0 1 1,0 z"
       id="path6603"
       style="fill:#5f8ed3;fill-opacity:0.819608" /></g></svg>
